<mxfile host="app.diagrams.net" modified="2024-05-15T21:52:17.866Z" agent="Mozilla/5.0 (Windows NT 10.0; Win64; x64) AppleWebKit/537.36 (KHTML, like Gecko) Chrome/124.0.0.0 Safari/537.36" etag="fd-fTHtxF5N7mcL0U0VN" version="24.4.0" type="google">
  <diagram name="Page-1" id="mo5XSPhGzVoddrwmSOTD">
    <mxGraphModel grid="1" page="1" gridSize="10" guides="1" tooltips="1" connect="1" arrows="1" fold="1" pageScale="1" pageWidth="2339" pageHeight="3300" math="0" shadow="0">
      <root>
        <mxCell id="0" />
        <mxCell id="1" parent="0" />
        <mxCell id="zIXouKrqdXB1dK_FrTTW-49" value="&lt;font color=&quot;#000000&quot; style=&quot;font-size: 14px;&quot;&gt;VPC&lt;br&gt;10.0.0.0/16&lt;/font&gt;" style="points=[[0,0],[0.25,0],[0.5,0],[0.75,0],[1,0],[1,0.25],[1,0.5],[1,0.75],[1,1],[0.75,1],[0.5,1],[0.25,1],[0,1],[0,0.75],[0,0.5],[0,0.25]];outlineConnect=0;gradientColor=none;html=1;whiteSpace=wrap;fontSize=12;fontStyle=0;container=1;pointerEvents=0;collapsible=0;recursiveResize=0;shape=mxgraph.aws4.group;grIcon=mxgraph.aws4.group_vpc2;strokeColor=#8C4FFF;fillColor=none;verticalAlign=top;align=left;spacingLeft=30;fontColor=#AAB7B8;dashed=0;strokeWidth=3;" vertex="1" parent="1">
          <mxGeometry x="390" y="410" width="1340" height="1010" as="geometry" />
        </mxCell>
        <mxCell id="zIXouKrqdXB1dK_FrTTW-70" value="" style="sketch=0;outlineConnect=0;fontColor=#232F3E;gradientColor=none;fillColor=#8C4FFF;strokeColor=none;dashed=0;verticalLabelPosition=bottom;verticalAlign=top;align=center;html=1;fontSize=12;fontStyle=0;aspect=fixed;pointerEvents=1;shape=mxgraph.aws4.internet_gateway;" vertex="1" parent="zIXouKrqdXB1dK_FrTTW-49">
          <mxGeometry x="680" y="-40" width="78" height="78" as="geometry" />
        </mxCell>
        <mxCell id="zIXouKrqdXB1dK_FrTTW-47" value="Region" style="points=[[0,0],[0.25,0],[0.5,0],[0.75,0],[1,0],[1,0.25],[1,0.5],[1,0.75],[1,1],[0.75,1],[0.5,1],[0.25,1],[0,1],[0,0.75],[0,0.5],[0,0.25]];outlineConnect=0;gradientColor=none;html=1;whiteSpace=wrap;fontSize=12;fontStyle=0;container=1;pointerEvents=0;collapsible=0;recursiveResize=0;shape=mxgraph.aws4.group;grIcon=mxgraph.aws4.group_region;strokeColor=#00A4A6;fillColor=none;verticalAlign=top;align=left;spacingLeft=30;fontColor=#147EBA;dashed=1;strokeWidth=3;" vertex="1" parent="1">
          <mxGeometry x="270" y="300" width="1740" height="1190" as="geometry" />
        </mxCell>
        <mxCell id="zIXouKrqdXB1dK_FrTTW-46" value="AWS Cloud" style="points=[[0,0],[0.25,0],[0.5,0],[0.75,0],[1,0],[1,0.25],[1,0.5],[1,0.75],[1,1],[0.75,1],[0.5,1],[0.25,1],[0,1],[0,0.75],[0,0.5],[0,0.25]];outlineConnect=0;gradientColor=none;html=1;whiteSpace=wrap;fontSize=12;fontStyle=0;container=1;pointerEvents=0;collapsible=0;recursiveResize=0;shape=mxgraph.aws4.group;grIcon=mxgraph.aws4.group_aws_cloud_alt;strokeColor=#232F3E;fillColor=none;verticalAlign=top;align=left;spacingLeft=30;fontColor=#232F3E;dashed=0;strokeWidth=3;" vertex="1" parent="1">
          <mxGeometry x="230" y="230" width="1810" height="1300" as="geometry" />
        </mxCell>
        <mxCell id="zIXouKrqdXB1dK_FrTTW-50" value="Private subnet" style="points=[[0,0],[0.25,0],[0.5,0],[0.75,0],[1,0],[1,0.25],[1,0.5],[1,0.75],[1,1],[0.75,1],[0.5,1],[0.25,1],[0,1],[0,0.75],[0,0.5],[0,0.25]];outlineConnect=0;gradientColor=none;html=1;whiteSpace=wrap;fontSize=12;fontStyle=0;container=1;pointerEvents=0;collapsible=0;recursiveResize=0;shape=mxgraph.aws4.group;grIcon=mxgraph.aws4.group_security_group;grStroke=0;strokeColor=#00A4A6;fillColor=#E6F6F7;verticalAlign=top;align=left;spacingLeft=30;fontColor=#147EBA;dashed=0;" vertex="1" parent="zIXouKrqdXB1dK_FrTTW-46">
          <mxGeometry x="250" y="860" width="350" height="260" as="geometry" />
        </mxCell>
        <mxCell id="zIXouKrqdXB1dK_FrTTW-72" value="&lt;font color=&quot;#000000&quot;&gt;Security Group&lt;/font&gt;" style="fillColor=none;strokeColor=#FF0000;dashed=1;verticalAlign=top;fontStyle=0;fontColor=#5A6C86;whiteSpace=wrap;html=1;" vertex="1" parent="zIXouKrqdXB1dK_FrTTW-50">
          <mxGeometry x="29" y="57" width="280" height="190" as="geometry" />
        </mxCell>
        <mxCell id="zIXouKrqdXB1dK_FrTTW-148" value="&lt;font color=&quot;#147eba&quot;&gt;10.0.8.0/24&lt;/font&gt;" style="text;html=1;align=center;verticalAlign=middle;whiteSpace=wrap;rounded=0;" vertex="1" parent="zIXouKrqdXB1dK_FrTTW-50">
          <mxGeometry x="29" y="20" width="60" height="30" as="geometry" />
        </mxCell>
        <mxCell id="zIXouKrqdXB1dK_FrTTW-58" value="Private subnet 2&lt;br&gt;10.0.1.0/24" style="points=[[0,0],[0.25,0],[0.5,0],[0.75,0],[1,0],[1,0.25],[1,0.5],[1,0.75],[1,1],[0.75,1],[0.5,1],[0.25,1],[0,1],[0,0.75],[0,0.5],[0,0.25]];outlineConnect=0;gradientColor=none;html=1;whiteSpace=wrap;fontSize=12;fontStyle=0;container=1;pointerEvents=0;collapsible=0;recursiveResize=0;shape=mxgraph.aws4.group;grIcon=mxgraph.aws4.group_security_group;grStroke=0;strokeColor=#00A4A6;fillColor=#E6F6F7;verticalAlign=top;align=left;spacingLeft=30;fontColor=#147EBA;dashed=0;" vertex="1" parent="zIXouKrqdXB1dK_FrTTW-46">
          <mxGeometry x="1055" y="550" width="350" height="260" as="geometry" />
        </mxCell>
        <mxCell id="zIXouKrqdXB1dK_FrTTW-60" value="" style="sketch=0;points=[[0,0,0],[0.25,0,0],[0.5,0,0],[0.75,0,0],[1,0,0],[0,1,0],[0.25,1,0],[0.5,1,0],[0.75,1,0],[1,1,0],[0,0.25,0],[0,0.5,0],[0,0.75,0],[1,0.25,0],[1,0.5,0],[1,0.75,0]];outlineConnect=0;fontColor=#232F3E;fillColor=#ED7100;strokeColor=#ffffff;dashed=0;verticalLabelPosition=bottom;verticalAlign=top;align=center;html=1;fontSize=12;fontStyle=0;aspect=fixed;shape=mxgraph.aws4.resourceIcon;resIcon=mxgraph.aws4.compute;" vertex="1" parent="zIXouKrqdXB1dK_FrTTW-58">
          <mxGeometry x="136" y="86" width="78" height="78" as="geometry" />
        </mxCell>
        <mxCell id="zIXouKrqdXB1dK_FrTTW-69" value="" style="sketch=0;outlineConnect=0;fontColor=#232F3E;gradientColor=none;fillColor=#8C4FFF;strokeColor=none;dashed=0;verticalLabelPosition=bottom;verticalAlign=top;align=center;html=1;fontSize=12;fontStyle=0;aspect=fixed;pointerEvents=1;shape=mxgraph.aws4.route_table;" vertex="1" parent="zIXouKrqdXB1dK_FrTTW-58">
          <mxGeometry x="295" y="210" width="46" height="44.82" as="geometry" />
        </mxCell>
        <mxCell id="zIXouKrqdXB1dK_FrTTW-73" value="&lt;font color=&quot;#000000&quot;&gt;Security Group&lt;/font&gt;" style="fillColor=none;strokeColor=#FF0000;dashed=1;verticalAlign=top;fontStyle=0;fontColor=#5A6C86;whiteSpace=wrap;html=1;" vertex="1" parent="zIXouKrqdXB1dK_FrTTW-46">
          <mxGeometry x="1090" y="594" width="280" height="190" as="geometry" />
        </mxCell>
        <mxCell id="zIXouKrqdXB1dK_FrTTW-155" value="" style="fillColor=#EFF0F3;strokeColor=none;dashed=0;verticalAlign=top;fontStyle=0;fontColor=#232F3D;whiteSpace=wrap;html=1;" vertex="1" parent="zIXouKrqdXB1dK_FrTTW-46">
          <mxGeometry x="1510" y="910" width="260" height="210" as="geometry" />
        </mxCell>
        <mxCell id="zIXouKrqdXB1dK_FrTTW-52" value="Public subnet 1&lt;br&gt;10.0.4.0/24" style="points=[[0,0],[0.25,0],[0.5,0],[0.75,0],[1,0],[1,0.25],[1,0.5],[1,0.75],[1,1],[0.75,1],[0.5,1],[0.25,1],[0,1],[0,0.75],[0,0.5],[0,0.25]];outlineConnect=0;gradientColor=none;html=1;whiteSpace=wrap;fontSize=12;fontStyle=0;container=1;pointerEvents=0;collapsible=0;recursiveResize=0;shape=mxgraph.aws4.group;grIcon=mxgraph.aws4.group_security_group;grStroke=0;strokeColor=#7AA116;fillColor=#F2F6E8;verticalAlign=top;align=left;spacingLeft=30;fontColor=#248814;dashed=0;" vertex="1" parent="zIXouKrqdXB1dK_FrTTW-46">
          <mxGeometry x="250" y="240" width="350" height="270" as="geometry" />
        </mxCell>
        <mxCell id="zIXouKrqdXB1dK_FrTTW-53" value="" style="sketch=0;outlineConnect=0;fontColor=#232F3E;gradientColor=none;fillColor=#8C4FFF;strokeColor=none;dashed=0;verticalLabelPosition=bottom;verticalAlign=top;align=center;html=1;fontSize=12;fontStyle=0;aspect=fixed;pointerEvents=1;shape=mxgraph.aws4.nat_gateway;" vertex="1" parent="zIXouKrqdXB1dK_FrTTW-52">
          <mxGeometry x="123" y="80" width="104" height="104" as="geometry" />
        </mxCell>
        <mxCell id="zIXouKrqdXB1dK_FrTTW-66" value="" style="sketch=0;outlineConnect=0;fontColor=#232F3E;gradientColor=none;fillColor=#8C4FFF;strokeColor=none;dashed=0;verticalLabelPosition=bottom;verticalAlign=top;align=center;html=1;fontSize=12;fontStyle=0;aspect=fixed;pointerEvents=1;shape=mxgraph.aws4.route_table;" vertex="1" parent="zIXouKrqdXB1dK_FrTTW-52">
          <mxGeometry x="300" y="220" width="46" height="44.82" as="geometry" />
        </mxCell>
        <mxCell id="zIXouKrqdXB1dK_FrTTW-75" style="edgeStyle=orthogonalEdgeStyle;rounded=0;orthogonalLoop=1;jettySize=auto;html=1;" edge="1" parent="zIXouKrqdXB1dK_FrTTW-46" source="zIXouKrqdXB1dK_FrTTW-51" target="zIXouKrqdXB1dK_FrTTW-53">
          <mxGeometry relative="1" as="geometry">
            <mxPoint x="-50" y="360" as="targetPoint" />
            <Array as="points">
              <mxPoint x="180" y="680" />
              <mxPoint x="180" y="372" />
            </Array>
          </mxGeometry>
        </mxCell>
        <mxCell id="zIXouKrqdXB1dK_FrTTW-51" value="Private subnet 1&lt;br&gt;10.0.0.0/24" style="points=[[0,0],[0.25,0],[0.5,0],[0.75,0],[1,0],[1,0.25],[1,0.5],[1,0.75],[1,1],[0.75,1],[0.5,1],[0.25,1],[0,1],[0,0.75],[0,0.5],[0,0.25]];outlineConnect=0;gradientColor=none;html=1;whiteSpace=wrap;fontSize=12;fontStyle=0;container=1;pointerEvents=0;collapsible=0;recursiveResize=0;shape=mxgraph.aws4.group;grIcon=mxgraph.aws4.group_security_group;grStroke=0;strokeColor=#00A4A6;fillColor=#E6F6F7;verticalAlign=top;align=left;spacingLeft=30;fontColor=#147EBA;dashed=0;" vertex="1" parent="zIXouKrqdXB1dK_FrTTW-46">
          <mxGeometry x="250" y="550" width="350" height="260" as="geometry" />
        </mxCell>
        <mxCell id="zIXouKrqdXB1dK_FrTTW-54" value="Private subnet" style="points=[[0,0],[0.25,0],[0.5,0],[0.75,0],[1,0],[1,0.25],[1,0.5],[1,0.75],[1,1],[0.75,1],[0.5,1],[0.25,1],[0,1],[0,0.75],[0,0.5],[0,0.25]];outlineConnect=0;gradientColor=none;html=1;whiteSpace=wrap;fontSize=12;fontStyle=0;container=1;pointerEvents=0;collapsible=0;recursiveResize=0;shape=mxgraph.aws4.group;grIcon=mxgraph.aws4.group_security_group;grStroke=0;strokeColor=#00A4A6;fillColor=#E6F6F7;verticalAlign=top;align=left;spacingLeft=30;fontColor=#147EBA;dashed=0;" vertex="1" parent="zIXouKrqdXB1dK_FrTTW-46">
          <mxGeometry x="1055" y="860" width="350" height="260" as="geometry" />
        </mxCell>
        <mxCell id="zIXouKrqdXB1dK_FrTTW-55" value="&lt;font style=&quot;font-size: 16px;&quot;&gt;Availability Zone B&lt;/font&gt;" style="fillColor=none;strokeColor=#147EBA;dashed=1;verticalAlign=top;fontStyle=0;fontColor=#147EBA;whiteSpace=wrap;html=1;strokeWidth=3;" vertex="1" parent="zIXouKrqdXB1dK_FrTTW-46">
          <mxGeometry x="1020" y="140" width="420" height="1070" as="geometry" />
        </mxCell>
        <mxCell id="zIXouKrqdXB1dK_FrTTW-56" value="Public subnet 2&lt;br&gt;10.0.5.0/24" style="points=[[0,0],[0.25,0],[0.5,0],[0.75,0],[1,0],[1,0.25],[1,0.5],[1,0.75],[1,1],[0.75,1],[0.5,1],[0.25,1],[0,1],[0,0.75],[0,0.5],[0,0.25]];outlineConnect=0;gradientColor=none;html=1;whiteSpace=wrap;fontSize=12;fontStyle=0;container=1;pointerEvents=0;collapsible=0;recursiveResize=0;shape=mxgraph.aws4.group;grIcon=mxgraph.aws4.group_security_group;grStroke=0;strokeColor=#7AA116;fillColor=#F2F6E8;verticalAlign=top;align=left;spacingLeft=30;fontColor=#248814;dashed=0;" vertex="1" parent="zIXouKrqdXB1dK_FrTTW-46">
          <mxGeometry x="1055" y="240" width="350" height="270" as="geometry" />
        </mxCell>
        <mxCell id="zIXouKrqdXB1dK_FrTTW-57" value="" style="sketch=0;outlineConnect=0;fontColor=#232F3E;gradientColor=none;fillColor=#8C4FFF;strokeColor=none;dashed=0;verticalLabelPosition=bottom;verticalAlign=top;align=center;html=1;fontSize=12;fontStyle=0;aspect=fixed;pointerEvents=1;shape=mxgraph.aws4.nat_gateway;" vertex="1" parent="zIXouKrqdXB1dK_FrTTW-56">
          <mxGeometry x="123" y="80" width="104" height="104" as="geometry" />
        </mxCell>
        <mxCell id="zIXouKrqdXB1dK_FrTTW-61" value="" style="sketch=0;outlineConnect=0;fontColor=#232F3E;gradientColor=none;fillColor=#C925D1;strokeColor=none;dashed=0;verticalLabelPosition=bottom;verticalAlign=top;align=center;html=1;fontSize=12;fontStyle=0;aspect=fixed;pointerEvents=1;shape=mxgraph.aws4.rds_mysql_instance;" vertex="1" parent="zIXouKrqdXB1dK_FrTTW-46">
          <mxGeometry x="380" y="957" width="78" height="78" as="geometry" />
        </mxCell>
        <mxCell id="zIXouKrqdXB1dK_FrTTW-62" value="" style="sketch=0;outlineConnect=0;fontColor=#232F3E;gradientColor=none;fillColor=#ED7100;strokeColor=none;dashed=0;verticalLabelPosition=bottom;verticalAlign=top;align=center;html=1;fontSize=12;fontStyle=0;aspect=fixed;pointerEvents=1;shape=mxgraph.aws4.elastic_ip_address;" vertex="1" parent="zIXouKrqdXB1dK_FrTTW-46">
          <mxGeometry x="700" y="362" width="48" height="20" as="geometry" />
        </mxCell>
        <mxCell id="zIXouKrqdXB1dK_FrTTW-63" value="" style="sketch=0;outlineConnect=0;fontColor=#232F3E;gradientColor=none;fillColor=#ED7100;strokeColor=none;dashed=0;verticalLabelPosition=bottom;verticalAlign=top;align=center;html=1;fontSize=12;fontStyle=0;aspect=fixed;pointerEvents=1;shape=mxgraph.aws4.elastic_ip_address;rotation=-180;" vertex="1" parent="zIXouKrqdXB1dK_FrTTW-46">
          <mxGeometry x="916" y="362" width="48" height="20" as="geometry" />
        </mxCell>
        <mxCell id="zIXouKrqdXB1dK_FrTTW-64" value="" style="sketch=0;outlineConnect=0;fontColor=#232F3E;gradientColor=none;fillColor=#8C4FFF;strokeColor=none;dashed=0;verticalLabelPosition=bottom;verticalAlign=top;align=center;html=1;fontSize=12;fontStyle=0;aspect=fixed;pointerEvents=1;shape=mxgraph.aws4.route_table;" vertex="1" parent="zIXouKrqdXB1dK_FrTTW-46">
          <mxGeometry x="550" y="760" width="46" height="44.82" as="geometry" />
        </mxCell>
        <mxCell id="zIXouKrqdXB1dK_FrTTW-65" value="" style="sketch=0;outlineConnect=0;fontColor=#232F3E;gradientColor=none;fillColor=#8C4FFF;strokeColor=none;dashed=0;verticalLabelPosition=bottom;verticalAlign=top;align=center;html=1;fontSize=12;fontStyle=0;aspect=fixed;pointerEvents=1;shape=mxgraph.aws4.route_table;" vertex="1" parent="zIXouKrqdXB1dK_FrTTW-46">
          <mxGeometry x="550" y="1070" width="46" height="44.82" as="geometry" />
        </mxCell>
        <mxCell id="zIXouKrqdXB1dK_FrTTW-67" value="" style="sketch=0;outlineConnect=0;fontColor=#232F3E;gradientColor=none;fillColor=#8C4FFF;strokeColor=none;dashed=0;verticalLabelPosition=bottom;verticalAlign=top;align=center;html=1;fontSize=12;fontStyle=0;aspect=fixed;pointerEvents=1;shape=mxgraph.aws4.route_table;" vertex="1" parent="zIXouKrqdXB1dK_FrTTW-46">
          <mxGeometry x="1350" y="1070" width="46" height="44.82" as="geometry" />
        </mxCell>
        <mxCell id="zIXouKrqdXB1dK_FrTTW-68" value="" style="sketch=0;outlineConnect=0;fontColor=#232F3E;gradientColor=none;fillColor=#8C4FFF;strokeColor=none;dashed=0;verticalLabelPosition=bottom;verticalAlign=top;align=center;html=1;fontSize=12;fontStyle=0;aspect=fixed;pointerEvents=1;shape=mxgraph.aws4.route_table;" vertex="1" parent="zIXouKrqdXB1dK_FrTTW-46">
          <mxGeometry x="1350" y="459.99999999999994" width="46" height="44.82" as="geometry" />
        </mxCell>
        <mxCell id="zIXouKrqdXB1dK_FrTTW-84" style="edgeStyle=orthogonalEdgeStyle;rounded=0;orthogonalLoop=1;jettySize=auto;html=1;entryX=1;entryY=0.5;entryDx=0;entryDy=0;startArrow=none;startFill=0;strokeWidth=2;" edge="1" parent="zIXouKrqdXB1dK_FrTTW-46" target="zIXouKrqdXB1dK_FrTTW-72">
          <mxGeometry relative="1" as="geometry">
            <mxPoint x="1050" y="689" as="sourcePoint" />
          </mxGeometry>
        </mxCell>
        <mxCell id="zIXouKrqdXB1dK_FrTTW-128" style="edgeStyle=orthogonalEdgeStyle;rounded=0;orthogonalLoop=1;jettySize=auto;html=1;strokeWidth=2;exitX=0.833;exitY=0.558;exitDx=0;exitDy=0;exitPerimeter=0;" edge="1" parent="zIXouKrqdXB1dK_FrTTW-46" source="zIXouKrqdXB1dK_FrTTW-55">
          <mxGeometry relative="1" as="geometry">
            <mxPoint x="2100" y="570" as="targetPoint" />
            <mxPoint x="1410" y="737" as="sourcePoint" />
            <Array as="points">
              <mxPoint x="2100" y="737" />
            </Array>
          </mxGeometry>
        </mxCell>
        <mxCell id="zIXouKrqdXB1dK_FrTTW-79" style="edgeStyle=orthogonalEdgeStyle;rounded=0;orthogonalLoop=1;jettySize=auto;html=1;" edge="1" parent="zIXouKrqdXB1dK_FrTTW-46" source="zIXouKrqdXB1dK_FrTTW-58" target="zIXouKrqdXB1dK_FrTTW-57">
          <mxGeometry relative="1" as="geometry">
            <mxPoint x="1712.9999999999998" y="430" as="targetPoint" />
            <mxPoint x="1589.9999999999998" y="738" as="sourcePoint" />
            <Array as="points">
              <mxPoint x="1470" y="675" />
              <mxPoint x="1470" y="370" />
            </Array>
          </mxGeometry>
        </mxCell>
        <mxCell id="zIXouKrqdXB1dK_FrTTW-81" style="edgeStyle=orthogonalEdgeStyle;rounded=0;orthogonalLoop=1;jettySize=auto;html=1;endArrow=none;endFill=0;" edge="1" parent="zIXouKrqdXB1dK_FrTTW-46" source="zIXouKrqdXB1dK_FrTTW-57" target="zIXouKrqdXB1dK_FrTTW-53">
          <mxGeometry relative="1" as="geometry" />
        </mxCell>
        <mxCell id="zIXouKrqdXB1dK_FrTTW-82" style="edgeStyle=orthogonalEdgeStyle;rounded=0;orthogonalLoop=1;jettySize=auto;html=1;startArrow=none;startFill=0;endArrow=none;endFill=0;" edge="1" parent="zIXouKrqdXB1dK_FrTTW-46" source="zIXouKrqdXB1dK_FrTTW-70">
          <mxGeometry relative="1" as="geometry">
            <mxPoint x="820" y="370" as="targetPoint" />
          </mxGeometry>
        </mxCell>
        <mxCell id="zIXouKrqdXB1dK_FrTTW-150" value="&lt;font color=&quot;#147eba&quot;&gt;10.0.9.0/24&lt;/font&gt;" style="text;html=1;align=center;verticalAlign=middle;whiteSpace=wrap;rounded=0;" vertex="1" parent="zIXouKrqdXB1dK_FrTTW-46">
          <mxGeometry x="1090" y="880" width="60" height="30" as="geometry" />
        </mxCell>
        <mxCell id="zIXouKrqdXB1dK_FrTTW-151" value="" style="sketch=0;outlineConnect=0;fontColor=#232F3E;gradientColor=none;fillColor=#DD344C;strokeColor=none;dashed=0;verticalLabelPosition=bottom;verticalAlign=top;align=center;html=1;fontSize=12;fontStyle=0;aspect=fixed;pointerEvents=1;shape=mxgraph.aws4.role;" vertex="1" parent="zIXouKrqdXB1dK_FrTTW-46">
          <mxGeometry x="1630" y="928.45" width="78" height="44" as="geometry" />
        </mxCell>
        <mxCell id="zIXouKrqdXB1dK_FrTTW-152" value="" style="sketch=0;outlineConnect=0;fontColor=#232F3E;gradientColor=none;fillColor=#DD344C;strokeColor=none;dashed=0;verticalLabelPosition=bottom;verticalAlign=top;align=center;html=1;fontSize=12;fontStyle=0;aspect=fixed;pointerEvents=1;shape=mxgraph.aws4.permissions;" vertex="1" parent="zIXouKrqdXB1dK_FrTTW-46">
          <mxGeometry x="1560" y="919" width="50" height="62.9" as="geometry" />
        </mxCell>
        <mxCell id="zIXouKrqdXB1dK_FrTTW-153" value="&lt;h1 style=&quot;margin-top: 0px;&quot;&gt;EC2 Instance Profile&lt;/h1&gt;&lt;p&gt;IAM Role with Custom Policy&amp;nbsp;&lt;b&gt;AmazonSSMManagedInstanceCore&lt;/b&gt; to SSH intro the Instance using &lt;b&gt;Session Manager.&lt;/b&gt;&lt;/p&gt;" style="text;html=1;whiteSpace=wrap;overflow=hidden;rounded=0;" vertex="1" parent="zIXouKrqdXB1dK_FrTTW-46">
          <mxGeometry x="1520" y="1000" width="240" height="120" as="geometry" />
        </mxCell>
        <mxCell id="zIXouKrqdXB1dK_FrTTW-158" style="edgeStyle=orthogonalEdgeStyle;rounded=0;orthogonalLoop=1;jettySize=auto;html=1;entryX=0.5;entryY=1;entryDx=0;entryDy=0;entryPerimeter=0;" edge="1" parent="zIXouKrqdXB1dK_FrTTW-46" source="zIXouKrqdXB1dK_FrTTW-155" target="zIXouKrqdXB1dK_FrTTW-60">
          <mxGeometry relative="1" as="geometry">
            <Array as="points">
              <mxPoint x="1620" y="830" />
              <mxPoint x="1230" y="830" />
            </Array>
          </mxGeometry>
        </mxCell>
        <mxCell id="zIXouKrqdXB1dK_FrTTW-59" value="&lt;font style=&quot;font-size: 15px;&quot; color=&quot;#000000&quot;&gt;&lt;b&gt;RDS SUBNET GROUPS&lt;/b&gt;&lt;/font&gt;" style="fillColor=none;strokeColor=#5A6C86;dashed=1;verticalAlign=top;fontStyle=0;fontColor=#5A6C86;whiteSpace=wrap;html=1;strokeWidth=3;" vertex="1" parent="zIXouKrqdXB1dK_FrTTW-46">
          <mxGeometry x="240" y="845" width="1180" height="290" as="geometry" />
        </mxCell>
        <mxCell id="zIXouKrqdXB1dK_FrTTW-48" value="&lt;font style=&quot;font-size: 16px;&quot;&gt;Availability Zone A&lt;/font&gt;" style="fillColor=none;strokeColor=#147EBA;dashed=1;verticalAlign=top;fontStyle=0;fontColor=#147EBA;whiteSpace=wrap;html=1;strokeWidth=3;" vertex="1" parent="zIXouKrqdXB1dK_FrTTW-46">
          <mxGeometry x="210" y="140" width="420" height="1070" as="geometry" />
        </mxCell>
        <mxCell id="zIXouKrqdXB1dK_FrTTW-71" value="" style="outlineConnect=0;dashed=0;verticalLabelPosition=bottom;verticalAlign=top;align=center;html=1;shape=mxgraph.aws3.internet_2;fillColor=#D2D3D3;gradientColor=none;" vertex="1" parent="1">
          <mxGeometry x="1370" y="130" width="79.5" height="54" as="geometry" />
        </mxCell>
        <mxCell id="zIXouKrqdXB1dK_FrTTW-83" style="edgeStyle=orthogonalEdgeStyle;rounded=0;orthogonalLoop=1;jettySize=auto;html=1;entryX=0;entryY=0.7;entryDx=0;entryDy=0;entryPerimeter=0;endArrow=classic;endFill=1;" edge="1" parent="1" source="zIXouKrqdXB1dK_FrTTW-70" target="zIXouKrqdXB1dK_FrTTW-71">
          <mxGeometry relative="1" as="geometry">
            <Array as="points">
              <mxPoint x="1049" y="168" />
            </Array>
          </mxGeometry>
        </mxCell>
        <mxCell id="zIXouKrqdXB1dK_FrTTW-86" value="Destination" style="swimlane;fontStyle=0;childLayout=stackLayout;horizontal=1;startSize=30;horizontalStack=0;resizeParent=1;resizeParentMax=0;resizeLast=0;collapsible=1;marginBottom=0;whiteSpace=wrap;html=1;" vertex="1" parent="1">
          <mxGeometry x="2110" y="730" width="140" height="60" as="geometry" />
        </mxCell>
        <mxCell id="zIXouKrqdXB1dK_FrTTW-87" value="0.0.0.0/0" style="text;strokeColor=none;fillColor=none;align=center;verticalAlign=middle;spacingLeft=4;spacingRight=4;overflow=hidden;points=[[0,0.5],[1,0.5]];portConstraint=eastwest;rotatable=0;whiteSpace=wrap;html=1;" vertex="1" parent="zIXouKrqdXB1dK_FrTTW-86">
          <mxGeometry y="30" width="140" height="30" as="geometry" />
        </mxCell>
        <mxCell id="zIXouKrqdXB1dK_FrTTW-108" value="OUTBOUND" style="rounded=0;whiteSpace=wrap;html=1;fontStyle=1;fillColor=#E6E6E6;" vertex="1" parent="1">
          <mxGeometry x="2110" y="710" width="420" height="20" as="geometry" />
        </mxCell>
        <mxCell id="zIXouKrqdXB1dK_FrTTW-109" value="Protocol" style="swimlane;fontStyle=0;childLayout=stackLayout;horizontal=1;startSize=30;horizontalStack=0;resizeParent=1;resizeParentMax=0;resizeLast=0;collapsible=1;marginBottom=0;whiteSpace=wrap;html=1;" vertex="1" parent="1">
          <mxGeometry x="2250" y="730" width="140" height="60" as="geometry" />
        </mxCell>
        <mxCell id="zIXouKrqdXB1dK_FrTTW-110" value="All" style="text;strokeColor=none;fillColor=none;align=center;verticalAlign=middle;spacingLeft=4;spacingRight=4;overflow=hidden;points=[[0,0.5],[1,0.5]];portConstraint=eastwest;rotatable=0;whiteSpace=wrap;html=1;" vertex="1" parent="zIXouKrqdXB1dK_FrTTW-109">
          <mxGeometry y="30" width="140" height="30" as="geometry" />
        </mxCell>
        <mxCell id="zIXouKrqdXB1dK_FrTTW-111" value="Port" style="swimlane;fontStyle=0;childLayout=stackLayout;horizontal=1;startSize=30;horizontalStack=0;resizeParent=1;resizeParentMax=0;resizeLast=0;collapsible=1;marginBottom=0;whiteSpace=wrap;html=1;" vertex="1" parent="1">
          <mxGeometry x="2390" y="730" width="140" height="60" as="geometry" />
        </mxCell>
        <mxCell id="zIXouKrqdXB1dK_FrTTW-112" value="All" style="text;strokeColor=none;fillColor=none;align=center;verticalAlign=middle;spacingLeft=4;spacingRight=4;overflow=hidden;points=[[0,0.5],[1,0.5]];portConstraint=eastwest;rotatable=0;whiteSpace=wrap;html=1;" vertex="1" parent="zIXouKrqdXB1dK_FrTTW-111">
          <mxGeometry y="30" width="140" height="30" as="geometry" />
        </mxCell>
        <mxCell id="zIXouKrqdXB1dK_FrTTW-120" value="Source" style="swimlane;fontStyle=0;childLayout=stackLayout;horizontal=1;startSize=30;horizontalStack=0;resizeParent=1;resizeParentMax=0;resizeLast=0;collapsible=1;marginBottom=0;whiteSpace=wrap;html=1;" vertex="1" parent="1">
          <mxGeometry x="2110" y="650" width="140" height="60" as="geometry" />
        </mxCell>
        <mxCell id="zIXouKrqdXB1dK_FrTTW-121" value="-" style="text;strokeColor=none;fillColor=none;align=center;verticalAlign=middle;spacingLeft=4;spacingRight=4;overflow=hidden;points=[[0,0.5],[1,0.5]];portConstraint=eastwest;rotatable=0;whiteSpace=wrap;html=1;" vertex="1" parent="zIXouKrqdXB1dK_FrTTW-120">
          <mxGeometry y="30" width="140" height="30" as="geometry" />
        </mxCell>
        <mxCell id="zIXouKrqdXB1dK_FrTTW-122" value="INBOUND" style="rounded=0;whiteSpace=wrap;html=1;fontStyle=1;fillColor=#E6E6E6;" vertex="1" parent="1">
          <mxGeometry x="2110" y="630" width="420" height="20" as="geometry" />
        </mxCell>
        <mxCell id="zIXouKrqdXB1dK_FrTTW-123" value="Protocol" style="swimlane;fontStyle=0;childLayout=stackLayout;horizontal=1;startSize=30;horizontalStack=0;resizeParent=1;resizeParentMax=0;resizeLast=0;collapsible=1;marginBottom=0;whiteSpace=wrap;html=1;" vertex="1" parent="1">
          <mxGeometry x="2250" y="650" width="140" height="60" as="geometry" />
        </mxCell>
        <mxCell id="zIXouKrqdXB1dK_FrTTW-124" value="-" style="text;strokeColor=none;fillColor=none;align=center;verticalAlign=middle;spacingLeft=4;spacingRight=4;overflow=hidden;points=[[0,0.5],[1,0.5]];portConstraint=eastwest;rotatable=0;whiteSpace=wrap;html=1;" vertex="1" parent="zIXouKrqdXB1dK_FrTTW-123">
          <mxGeometry y="30" width="140" height="30" as="geometry" />
        </mxCell>
        <mxCell id="zIXouKrqdXB1dK_FrTTW-125" value="Port" style="swimlane;fontStyle=0;childLayout=stackLayout;horizontal=1;startSize=30;horizontalStack=0;resizeParent=1;resizeParentMax=0;resizeLast=0;collapsible=1;marginBottom=0;whiteSpace=wrap;html=1;" vertex="1" parent="1">
          <mxGeometry x="2390" y="650" width="140" height="60" as="geometry" />
        </mxCell>
        <mxCell id="zIXouKrqdXB1dK_FrTTW-126" value="-" style="text;strokeColor=none;fillColor=none;align=center;verticalAlign=middle;spacingLeft=4;spacingRight=4;overflow=hidden;points=[[0,0.5],[1,0.5]];portConstraint=eastwest;rotatable=0;whiteSpace=wrap;html=1;" vertex="1" parent="zIXouKrqdXB1dK_FrTTW-125">
          <mxGeometry y="30" width="140" height="30" as="geometry" />
        </mxCell>
        <mxCell id="zIXouKrqdXB1dK_FrTTW-127" value="SG-EC2-INSTANCE" style="rounded=0;whiteSpace=wrap;html=1;fontStyle=1" vertex="1" parent="1">
          <mxGeometry x="2110" y="610" width="420" height="20" as="geometry" />
        </mxCell>
        <mxCell id="zIXouKrqdXB1dK_FrTTW-129" value="Destination" style="swimlane;fontStyle=0;childLayout=stackLayout;horizontal=1;startSize=30;horizontalStack=0;resizeParent=1;resizeParentMax=0;resizeLast=0;collapsible=1;marginBottom=0;whiteSpace=wrap;html=1;" vertex="1" parent="1">
          <mxGeometry x="-310" y="1307" width="140" height="60" as="geometry" />
        </mxCell>
        <mxCell id="zIXouKrqdXB1dK_FrTTW-130" value="-" style="text;strokeColor=none;fillColor=none;align=center;verticalAlign=middle;spacingLeft=4;spacingRight=4;overflow=hidden;points=[[0,0.5],[1,0.5]];portConstraint=eastwest;rotatable=0;whiteSpace=wrap;html=1;" vertex="1" parent="zIXouKrqdXB1dK_FrTTW-129">
          <mxGeometry y="30" width="140" height="30" as="geometry" />
        </mxCell>
        <mxCell id="zIXouKrqdXB1dK_FrTTW-131" value="OUTBOUND" style="rounded=0;whiteSpace=wrap;html=1;fontStyle=1;fillColor=#E6E6E6;" vertex="1" parent="1">
          <mxGeometry x="-310" y="1287" width="420" height="20" as="geometry" />
        </mxCell>
        <mxCell id="zIXouKrqdXB1dK_FrTTW-132" value="Protocol" style="swimlane;fontStyle=0;childLayout=stackLayout;horizontal=1;startSize=30;horizontalStack=0;resizeParent=1;resizeParentMax=0;resizeLast=0;collapsible=1;marginBottom=0;whiteSpace=wrap;html=1;" vertex="1" parent="1">
          <mxGeometry x="-170" y="1307" width="140" height="60" as="geometry" />
        </mxCell>
        <mxCell id="zIXouKrqdXB1dK_FrTTW-133" value="-" style="text;strokeColor=none;fillColor=none;align=center;verticalAlign=middle;spacingLeft=4;spacingRight=4;overflow=hidden;points=[[0,0.5],[1,0.5]];portConstraint=eastwest;rotatable=0;whiteSpace=wrap;html=1;" vertex="1" parent="zIXouKrqdXB1dK_FrTTW-132">
          <mxGeometry y="30" width="140" height="30" as="geometry" />
        </mxCell>
        <mxCell id="zIXouKrqdXB1dK_FrTTW-134" value="Port" style="swimlane;fontStyle=0;childLayout=stackLayout;horizontal=1;startSize=30;horizontalStack=0;resizeParent=1;resizeParentMax=0;resizeLast=0;collapsible=1;marginBottom=0;whiteSpace=wrap;html=1;" vertex="1" parent="1">
          <mxGeometry x="-30" y="1307" width="140" height="60" as="geometry" />
        </mxCell>
        <mxCell id="zIXouKrqdXB1dK_FrTTW-135" value="-" style="text;strokeColor=none;fillColor=none;align=center;verticalAlign=middle;spacingLeft=4;spacingRight=4;overflow=hidden;points=[[0,0.5],[1,0.5]];portConstraint=eastwest;rotatable=0;whiteSpace=wrap;html=1;" vertex="1" parent="zIXouKrqdXB1dK_FrTTW-134">
          <mxGeometry y="30" width="140" height="30" as="geometry" />
        </mxCell>
        <mxCell id="zIXouKrqdXB1dK_FrTTW-136" value="Source" style="swimlane;fontStyle=0;childLayout=stackLayout;horizontal=1;startSize=30;horizontalStack=0;resizeParent=1;resizeParentMax=0;resizeLast=0;collapsible=1;marginBottom=0;whiteSpace=wrap;html=1;" vertex="1" parent="1">
          <mxGeometry x="-310" y="1227" width="140" height="60" as="geometry" />
        </mxCell>
        <mxCell id="zIXouKrqdXB1dK_FrTTW-137" value="&lt;b&gt;SG-EC2-INSTANCE&lt;/b&gt;" style="text;strokeColor=none;fillColor=none;align=center;verticalAlign=middle;spacingLeft=4;spacingRight=4;overflow=hidden;points=[[0,0.5],[1,0.5]];portConstraint=eastwest;rotatable=0;whiteSpace=wrap;html=1;" vertex="1" parent="zIXouKrqdXB1dK_FrTTW-136">
          <mxGeometry y="30" width="140" height="30" as="geometry" />
        </mxCell>
        <mxCell id="zIXouKrqdXB1dK_FrTTW-138" value="INBOUND" style="rounded=0;whiteSpace=wrap;html=1;fontStyle=1;fillColor=#E6E6E6;" vertex="1" parent="1">
          <mxGeometry x="-310" y="1207" width="420" height="20" as="geometry" />
        </mxCell>
        <mxCell id="zIXouKrqdXB1dK_FrTTW-139" value="Protocol" style="swimlane;fontStyle=0;childLayout=stackLayout;horizontal=1;startSize=30;horizontalStack=0;resizeParent=1;resizeParentMax=0;resizeLast=0;collapsible=1;marginBottom=0;whiteSpace=wrap;html=1;" vertex="1" parent="1">
          <mxGeometry x="-170" y="1227" width="140" height="60" as="geometry" />
        </mxCell>
        <mxCell id="zIXouKrqdXB1dK_FrTTW-140" value="TCP" style="text;strokeColor=none;fillColor=none;align=center;verticalAlign=middle;spacingLeft=4;spacingRight=4;overflow=hidden;points=[[0,0.5],[1,0.5]];portConstraint=eastwest;rotatable=0;whiteSpace=wrap;html=1;" vertex="1" parent="zIXouKrqdXB1dK_FrTTW-139">
          <mxGeometry y="30" width="140" height="30" as="geometry" />
        </mxCell>
        <mxCell id="zIXouKrqdXB1dK_FrTTW-141" value="Port" style="swimlane;fontStyle=0;childLayout=stackLayout;horizontal=1;startSize=30;horizontalStack=0;resizeParent=1;resizeParentMax=0;resizeLast=0;collapsible=1;marginBottom=0;whiteSpace=wrap;html=1;" vertex="1" parent="1">
          <mxGeometry x="-30" y="1227" width="140" height="60" as="geometry" />
        </mxCell>
        <mxCell id="zIXouKrqdXB1dK_FrTTW-142" value="3306" style="text;strokeColor=none;fillColor=none;align=center;verticalAlign=middle;spacingLeft=4;spacingRight=4;overflow=hidden;points=[[0,0.5],[1,0.5]];portConstraint=eastwest;rotatable=0;whiteSpace=wrap;html=1;" vertex="1" parent="zIXouKrqdXB1dK_FrTTW-141">
          <mxGeometry y="30" width="140" height="30" as="geometry" />
        </mxCell>
        <mxCell id="zIXouKrqdXB1dK_FrTTW-143" value="SG-DATABASE-INSTANCE" style="rounded=0;whiteSpace=wrap;html=1;fontStyle=1" vertex="1" parent="1">
          <mxGeometry x="-310" y="1187" width="420" height="20" as="geometry" />
        </mxCell>
        <mxCell id="zIXouKrqdXB1dK_FrTTW-144" style="edgeStyle=orthogonalEdgeStyle;rounded=0;orthogonalLoop=1;jettySize=auto;html=1;exitX=0.5;exitY=1;exitDx=0;exitDy=0;entryX=0.471;entryY=1.133;entryDx=0;entryDy=0;entryPerimeter=0;strokeWidth=2;" edge="1" parent="1" source="zIXouKrqdXB1dK_FrTTW-72" target="zIXouKrqdXB1dK_FrTTW-133">
          <mxGeometry relative="1" as="geometry">
            <Array as="points">
              <mxPoint x="650" y="1610" />
              <mxPoint x="-104" y="1610" />
            </Array>
          </mxGeometry>
        </mxCell>
      </root>
    </mxGraphModel>
  </diagram>
</mxfile>
